<?xml version="1.0" encoding="UTF-8"?>
<svg width="273px" height="78px" viewBox="0 0 273 78" version="1.1" xmlns="http://www.w3.org/2000/svg" xmlns:xlink="http://www.w3.org/1999/xlink">
    <!-- Generator: Sketch 52.2 (67145) - http://www.bohemiancoding.com/sketch -->
    <title>wordmark white</title>
    <desc>Created with Sketch.</desc>
    <defs>
        <polygon id="path-1" points="0.0003 0.66 48.7383 0.66 48.7383 60.4844 0.0003 60.4844"></polygon>
        <polygon id="path-3" points="0.4395 0.66 59.4565 0.66 59.4565 60.2538 0.4395 60.2538"></polygon>
        <polygon id="path-5" points="0.0031 0.66 53.9391 0.66 53.9391 60.3691 0.0031 60.3691"></polygon>
        <polygon id="path-7" points="0.4863 0.66 62.5083 0.66 62.5083 77 0.4863 77"></polygon>
    </defs>
    <g id="wordmark-white" stroke="none" stroke-width="1" fill="none" fill-rule="evenodd">
        <g id="snag-logo-white">
            <g id="Group-3" transform="translate(0.000000, 0.340300)">
                <g id="Fill-1-Clipped">
                    <mask id="mask-2" fill="white">
                        <use xlink:href="#path-1"></use>
                    </mask>
                    <g id="path-1"></g>
                    <path d="M48.7383,39.5804 C48.7383,53.5554 39.3833,60.4844 22.7523,60.4844 C8.3153,60.4844 0.0003,55.6344 0.0003,48.1274 C0.0003,44.0844 2.3093,41.7744 6.3523,41.7744 C8.0843,41.7744 9.3553,42.2364 10.3943,42.8144 C10.9713,43.1604 11.5493,43.5074 12.1263,43.8534 C13.2813,44.6624 14.7833,45.3544 17.0923,45.8164 C18.2483,46.0484 19.6343,46.1634 21.3663,46.1634 C24.2533,46.1634 26.2173,45.8164 27.2563,45.2394 C28.2963,44.6624 28.8733,43.8534 28.8733,43.0454 C28.8733,41.0824 27.2563,40.5044 25.0623,40.1574 C24.1383,40.0424 22.9833,39.8114 21.7123,39.6954 C18.9413,39.4654 15.9383,39.1184 12.7043,38.1944 C11.0873,37.8484 9.5863,37.2704 8.0843,36.4624 C2.1943,33.2274 0.4623,27.2234 0.4623,21.3324 C0.4623,13.3634 3.6963,8.1664 8.4303,4.9324 C13.1663,1.8134 19.6343,0.6594 25.9863,0.6594 C38.4593,0.6594 46.1973,5.6254 46.1973,12.4394 C46.1973,16.1354 43.8873,18.6764 39.8453,18.6764 C38.5743,18.6764 37.4203,18.4444 36.4953,17.8674 C34.5323,16.9434 32.3383,16.1354 30.4903,15.6734 C29.4503,15.4424 28.2963,15.3264 26.9093,15.3264 C23.5603,15.3264 21.4813,15.6734 20.4423,16.3664 C19.4033,17.1754 18.8253,17.9824 18.8253,18.7914 C18.8253,20.5234 19.8643,21.1014 22.0593,21.4474 C23.2143,21.5634 24.6003,21.7944 26.1013,21.9094 C29.2193,22.2564 32.6843,22.7184 36.0333,23.5264 C37.7663,23.9884 39.2673,24.5664 40.5383,25.2594 C47.3523,28.8394 48.7383,33.6904 48.7383,39.5804" id="Fill-1" fill="#FFFFFF" fill-rule="nonzero" mask="url(#mask-2)"></path>
                </g>
            </g>
            <g id="Group-6" transform="translate(55.000000, 0.340300)">
                <g id="Fill-4-Clipped">
                    <mask id="mask-4" fill="white">
                        <use xlink:href="#path-3"></use>
                    </mask>
                    <g id="path-3"></g>
                    <path d="M0.4395,49.3978 L0.4395,12.2088 C0.4395,5.2788 4.3665,1.1218 10.8335,1.1218 C18.1095,1.1218 21.3435,5.3938 21.6895,13.2488 L21.8055,15.4428 C23.1915,11.2848 25.3855,7.7048 28.6195,4.9318 C31.7385,2.2758 35.7805,0.6598 41.3245,0.6598 C52.7575,0.6598 59.4565,7.2428 59.4565,21.6788 L59.4565,49.3978 C59.4565,55.9808 55.4145,60.2538 48.4845,60.2538 C41.5555,60.2538 37.5125,55.9808 37.5125,49.3978 L37.5125,25.6058 C37.5125,19.4848 35.2025,16.4818 30.5835,16.4818 C25.5015,16.4818 22.3835,20.7548 22.3835,29.4178 L22.3835,49.3978 C22.3835,55.9808 18.3405,60.2538 11.4115,60.2538 C4.4815,60.2538 0.4395,55.9808 0.4395,49.3978" id="Fill-4" fill="#FFFFFF" fill-rule="nonzero" mask="url(#mask-4)"></path>
                </g>
            </g>
            <g id="Group-9" transform="translate(120.000000, 0.340300)">
                <g id="Fill-7-Clipped">
                    <mask id="mask-6" fill="white">
                        <use xlink:href="#path-5"></use>
                    </mask>
                    <g id="path-5"></g>
                    <path d="M31.9961,39.4651 L31.9961,32.7661 C30.6091,34.0361 29.3401,34.9601 27.1441,36.0001 C24.4881,37.2711 22.1781,39.1181 22.1781,42.9301 L22.1781,43.5071 C22.1781,47.0871 23.9101,48.8191 26.5661,48.8191 C30.1481,48.8191 31.9961,45.7011 31.9961,39.4651 M0.0031,45.0091 L0.0031,44.8931 C0.0031,38.8881 2.4291,35.3071 6.3551,32.9971 C10.2821,30.6881 15.3641,29.4171 21.2541,28.0311 C24.8341,27.2231 27.4901,26.4141 29.3401,25.7211 C31.0721,25.1441 31.9961,24.2201 31.9961,22.9491 L31.9961,22.6031 C31.9961,19.3691 28.5311,18.0991 24.0271,18.0991 C17.9041,18.0991 14.9021,19.9461 12.5921,21.3321 C11.4371,22.1411 9.9361,22.4871 8.2041,22.4871 C4.0461,22.4871 1.8511,20.0621 1.8511,16.2501 C1.8511,11.9781 4.6231,8.0511 9.3581,5.1631 C13.9781,2.3921 20.6781,0.6591 28.1831,0.6591 C37.5391,0.6591 44.0061,3.0841 48.1641,7.3581 C52.2071,11.6311 53.9391,18.0991 53.9391,26.0681 L53.9391,49.1661 C53.9391,56.0961 50.0121,60.2541 43.5451,60.2541 C37.6541,60.2541 33.1501,56.4431 33.1501,49.9751 L33.1501,49.5131 C30.0311,56.5581 24.0271,60.3691 16.0571,60.3691 C6.4711,60.3691 0.0031,54.1331 0.0031,45.0091" id="Fill-7" fill="#FFFFFF" fill-rule="nonzero" mask="url(#mask-6)"></path>
                </g>
            </g>
            <g id="Group-12" transform="translate(179.000000, 0.340300)">
                <g id="Fill-10-Clipped">
                    <mask id="mask-8" fill="white">
                        <use xlink:href="#path-7"></use>
                    </mask>
                    <g id="path-7"></g>
                    <path d="M40.4473,29.4173 L40.4473,28.0313 C40.4473,19.3693 37.2153,15.4423 31.5543,15.4423 C25.8963,15.4423 22.6623,19.3693 22.6623,28.0313 L22.6623,29.4173 C22.6623,38.0793 25.8963,42.0063 31.5543,42.0063 C37.2153,42.0063 40.4473,38.0793 40.4473,29.4173 M0.4863,28.3773 L0.4863,28.2623 C0.4863,19.8313 2.9123,12.7853 7.0703,8.0513 C11.2283,3.3153 17.1193,0.6593 24.1643,0.6593 C34.3263,0.6593 40.4473,4.7013 42.6423,12.9013 L42.6423,12.2083 C42.6423,5.1633 46.6853,1.1213 53.0373,1.1213 C58.9273,1.1213 62.5083,5.2783 62.5083,12.2083 L62.5083,45.0093 C62.5083,65.4513 52.5743,77.0003 28.6683,77.0003 C11.6893,77.0003 2.3363,70.9943 2.3363,63.4873 C2.3363,59.4453 5.1073,57.0203 8.8023,57.0203 C10.1893,57.0203 11.4593,57.2513 12.6133,57.7133 C14.8083,58.7523 17.4653,59.7923 20.1213,60.2543 C21.3903,60.4843 23.0083,60.6003 24.8553,60.6003 C30.8613,60.6003 34.7893,58.9833 37.2153,56.4423 C39.5233,53.9013 40.4473,50.6683 40.4473,46.9723 L40.4473,44.6623 C39.5233,46.8563 37.9063,49.1663 35.2503,51.0143 C32.4783,52.8623 28.5523,54.1333 23.3553,54.1333 C8.4573,54.1333 0.4863,44.6623 0.4863,28.3773" id="Fill-10" fill="#FFFFFF" fill-rule="nonzero" mask="url(#mask-8)"></path>
                </g>
            </g>
            <path d="M268.4199,57.0134 C266.1089,59.3244 262.9919,60.7094 259.6429,60.7094 C256.4079,60.7094 253.2909,59.3244 251.0959,57.0134 C248.7849,54.7034 247.3999,51.5854 247.3999,48.2364 C247.3999,44.8874 248.7849,41.6534 251.0959,39.3434 C253.2909,37.0334 256.4079,35.5324 259.6429,35.5324 C262.9919,35.5324 266.1089,37.0334 268.4199,39.3434 C270.7309,41.6534 272.1149,44.8874 272.1149,48.2364 C272.1149,51.5854 270.7309,54.7034 268.4199,57.0134" id="Fill-13" fill="#FFFFFF" fill-rule="nonzero"></path>
        </g>
    </g>
</svg>